<?xml version="1.0" encoding="utf-8"?>
<!-- Designed by Vexels.com - 2020 All Rights Reserved - https://vexels.com/terms-and-conditions/  -->
<svg version="1.1" id="Capa_1" xmlns="http://www.w3.org/2000/svg" xmlns:xlink="http://www.w3.org/1999/xlink" x="0px" y="0px"
	 viewBox="0 0 1200 1200" enable-background="new 0 0 1200 1200" xml:space="preserve">
<g>
	<path fill="#E06444" d="M926.045,497.2c-3.522-22.847,13.507-29.608,15.262-42.819c-5.916-4.258-15.345,16.962-16.884,19.813
		c-6.87,12.915-1.641,29.258-6.881,43.144c-1.827,4.374-5.573,5.698-8.196,9.866c-4.419,7.044-5.184,14.883-7.867,23.236
		c-6.525,20.024-15.64,37.903-24.99,56.595c-12.14-29.241-7.283-39.759-13.289-44.883c-5.091,13.867,4.764,31.525,8,46.21
		c1.91,9.189-3.356,15.512-7.026,23.658c-5.18,10.451-9.111,19.613-15.593,29.384c-4.73,4.789-14.735,37.849-15.651,29.432
		c-3.116-21.867,1.87-44.206-9.78-64.268c-3.356-5.544-5.914-20.193-10.733-14.732c0.429,12.493,11.871,23.461,13.02,36.893
		c0.942,18.974,2.493,37.342,1.756,56.176c-10.339,34.467-14.016,40.585-28.335,60.678c-14.503,1.998-29.52-5.276-40.937-16.794
		c-13.351-11.686-27.345-20.851-38.136-35.416c-17.376-26.076-38.85-50.402-46.159-81.956c-5.812-28.803-26.057-50.55-46.692-68.138
		c4.106-3.011,15.104-14.627,17.223-10.395c6.938,11.675,11.089,27.195,19.024,26.872c0.241-3.107-0.562-4.898-2.641-8.184
		c-21.827-36.269-6.134-12.197,2.414-35.297c6.138-7.689,14.104-13.085,17.517-23.708c7.382,4.316,13.039,9.615,18.773,16.829
		c13.29,0.378-13.165-19.686-15.81-22.505c-8.177-11.152-2.836-26.131-1.729-39.463c2.262-0.514,5.361-0.349,7.603,0.566
		c21.979,10.262,25.055,22.063,34.847,24.62c1.774-11.481-34.349-32.016-40.057-31.611c-2.78-0.284-1.175-4.893-2.145-7.674
		c-3.449-9.576-1.458-17.986,2.652-25.926c2.167-8.251,17.031-20.12,10.992-23.042c-9.881,3.157-16.816,23.752-19.337,32.02
		c-4.108,2.104-11.205-1.279-16.935-1.621c-12.234-1.669-21.827,2.163-34.884-1.109c2.912-1.728,13.955-9.038,5.16-9.936
		c-3.862,1.484-7.748,5.141-12.72,5.746c-10.772-1.124-21.395-1.143-31.12-5.651c-2.384-3.032,1.492-9.939,0.544-14.367
		c-1.04-13.236,1.162-24.611,2.526-37.89c0.547-4.052-1.31-10.15,0.749-12.571c9.994-3.967,21.096-0.666,31.449-2.898
		c28.981-2.612,34.249,2.235,44.526,26.528c10.641,3.012-5.363-23.833-8.867-25.731c22.601,1.684,42.159-7.279,63.54-13.711
		c0.737,9.912-21.239,25.535-11.044,28.542c22.102-26.041,11.617-34.804,38.857-17.807c26.77,2.928,10.02,28.529,17.557,33.851
		c6.199,0.528,3.635-26.529,0.469-29.034c8.146-4.235,14.512-22.869,20.547-8.273c13.792,13.079,30.551,21.55,47.867,25.961
		c11.328,1.942,20.139,3.172,32.48,3.921c11.184-0.109,1.83-14.67,12.487-7.039c28.278,28.644,35.528,10.473,59.862,22.611
		c12.723,10.588,21.989,24.076,34.353,35.714c-2.769,2.286-15.749,15.436-6.463,14.641c4.4-2.716,6.175-7.36,10.904-10.253
		c18.747,18.094,14.264,11.483,3.267,28.132c-1.931,2.454,0.345,9.05,3.452,5.662c2.159-5.418,5.495-9.184,9.499-12.843
		c4.949,1.097,10.578,9.733,15.541,12.993c9.563,7.725,18.281,12.265,27.533,21.753c-26.276-4.959-30.51,30.456-42.781,47.114
		c-9.081-3.779-18.661-5.871-28.117-8.842c-14.123-5.601-24.757-14.339-39.807-15.427c5.343-30.826,24.464-30.744,27.23-43.107
		C951.846,462.576,926.015,494.885,926.045,497.2z"/>
	<path fill="#E06444" d="M622.917,567.122c50.95,40.987,40.864,67.218,56.354,94.972c18.561,28.653,35.074,59.592,61.74,79.63
		c15.123,10.738,26.054,27.737,44.589,27.854c4.318-0.656,6.087,4.281,2.412,7.254c-17.032,15.021-13.605,21.603-21.005,34.457
		c-17.756,17.352-14.861,15.237-22.527,33.024c-6.27,11.895-19.97,13.201-22.326,28.122c-1.574,6.981-8.016,7.819-11.957,13.095
		c-3.086,3.931-4.944,13.012-8.956,13.65c-11.74-1.237-21.335-10.152-30.428-17.902c-11.08-9.311-21.138-16.564-32.187-25.896
		c-13.573-11.314-10.686-26.468-16.676-40.041c-11.663-23.559-25.643-14.413-6.024-40.054c8.281-8.921,21.228-3.807,31.5-9.429
		c6.128-0.728,11.334-12.713,1.606-6.626c-7.337,3.71-14.905,5.609-22.688,4.314c2.223-7.453,5.957-14.263,12.595-19.455
		c6.973-7.984,9.854-17.512,8.314-29.674c-4.32-33.934-12.493-30.184-7.942-13.537c3.992,14.457,5.297,25.093-1.887,36.041
		c-4.231,8.303-9.301,9.658-17.215,6.838c-10.236-2.752-19.04-5.876-29.658-9.153c5.276-5.589,8.67-13.035,10.648-20.188
		c7.52-40.608,27.996-79.605-4.926-108.043c-5.224-5.309-11.378-6.867-14.445-13.968c26.387-16.156,28.423,14.291,35.783,4.277
		c-2.319-5.836-10.21-10.997-16.184-13.588c-4.299-4.495,3.56-7.553,7.778-7.568C614.451,574.063,618.383,571.164,622.917,567.122z
		 M689.803,790.218c-0.609-0.201-1.218-0.402-1.827-0.603c-5.407,9.49,25.472,84.4,30.427,67.788
		C695.914,822.04,698.77,813.553,689.803,790.218z M746.428,807.958c-8.419-9.801-14.547-23.097-21.832-34.367
		c-9.919-2.56,3.591,14.833,5.068,17.982C733.377,796.686,743.075,817.607,746.428,807.958z M665.557,660.728
		c-3.284-5.739-10.853-34.077-14.166-25.351c-0.226,6.626,4.362,12.605,6.095,19.061
		C659.369,659.354,662.478,670.765,665.557,660.728z M706.663,881.02c-1.401-2.781-21.265-17.704-17.006-7.503
		C694.124,875.921,706.137,888.055,706.663,881.02z"/>
	<path fill="#D68B1B" d="M604.993,802.685c30.896,27.748-0.475,39.624,48.699,71.26c13.171,9.542,22.8,21.223,37.185,28.891
		c-19.374,27.637-40.657,56.086-64.52,78.984c-46.865,8.827-55.994-26.567-74.424-60.897
		C567.173,879.66,588.345,843.218,604.993,802.685z"/>
	<path fill="#D68B1B" d="M873.617,360.321c-3.568,4.822-4.731,15.164-10.298,14.248c-21.363-2.069-42.745-5.436-61.8-18.961
		c4.286-5.398,5.879-11.513,7.584-18.06c8.704-12.655,5.845-28.248,3.608-43.248c3.189,1.838,17.11,1.79,10.017-4.345
		c-3-0.233-6.305-0.02-8.3-2.237c-6.462-7.033-11.709-29.794-3.457-34.882c19.063-0.109,12.054,41.244,33.043-6.595
		c3.057-8.506,3.124-17.491,8.186-25.19c15.216-13.835,39.925-13.842,54.82,1.569c5.77,8.367,6.442,19.306,9.385,29.332
		c5.222,16.449-3.503,22.311-5.341,33.474c-1.301,9.466,3.389,19.57-1.542,28.451c-7.792,12.568-11.508,25.91-19.393,37.82
		c-9.803,5.789-19.984,3.503-27.9-4.223c-7.287-6.238-14.768-24.182-18.899-21.051c-2.656,3.178,2.428,7.256,4.125,10.71
		C854.384,347.611,861.43,356.913,873.617,360.321z"/>
	<path fill="#D68B1B" d="M491.456,697.063c28.124-23.471,21.71-61.989,9.699-92.608c24.597-2.725,50.393-5.599,74.839-8.309
		c37.077,27.585,38.841,44.778,27.173,84.594c-4.907,16.265-4.042,32.654-13.979,46.711c-8.229,8.874-20.945-1.77-31.17-4.025
		C534.452,716.944,513.906,706.845,491.456,697.063z"/>
	<path fill="#E06444" d="M441.669,98.413c70.638-14.515,88.97,83.495,25.997,103.758C395.32,218.016,375.843,114.792,441.669,98.413
		z"/>
	<path fill="#D68B1B" d="M486.48,631.705c8.922,94.16-105.528,56.68-112.882-0.337c-1.982-30.023,34.397-41.101,55.523-37.71
		C453.575,603.241,485.353,609.637,486.48,631.705z"/>
	<path fill="#D68B1B" d="M583.601,356.917c0.861,10.701-0.797,22.445-2.365,33.553c-0.803,9.901,0.594,17.23-0.735,27.321
		c-15.036-8.858-32.895-9.432-44.411-20.139c-4.957-17.854-11.892-32.896-19.573-49.479c-7.419-20.287-11.413-39.397-18.222-60.186
		c2.784-12.499,30.219-24.815,37.452-15.02C552.787,300.941,564.915,330.589,583.601,356.917z"/>
	<path fill="#E06444" d="M269.289,563.867c-1.872,3.554-7.213,17.263-0.025,13.666c3.443-7.126,3.498-14.505,13.402-12.044
		c-4.045,20.826-11.211,40.991-12.945,62.478c-0.269,2.636,0.527,3.383-2.443,4.69c-20.236,3.425-6.191-6.654-13.896-15.752
		c-4.345,2.767-2.5,9.329-3.082,14.832c-12.12-2.563-24.257-0.155-36.273-5.329c-17.68-1.425-15.344-15.641-15.997-29.547
		c-8.876-9.445-2.581,22.39-1.843,25.508c-7.945-1.953-17.233-4.217-26.213-6.421c-4.978-17.84-1.049-29.15-12.655-42.04
		c-2.671-5.929-2.939-10.125-5.137-17.2c10.862,7.193,22.222,8.96,35.106,8.175c-0.09,4.466-2.362,11.871,2.093,15.257
		c5.115-2.623-0.211-14.97,4.374-15.867C220.279,565.707,242.609,565.512,269.289,563.867z"/>
	<path fill="#D68B1B" d="M370.099,569.62c-15.643,20.717-12.804,47.292-20.513,71.743c-2.675,9.278,1.325,21.396-9.092,17.064
		c-25.432-7.539-60.335-17.157-65.019-25.833c-0.766-21.592,7.167-42.763,11.931-64.211c4.002-7.614,21.182-0.888,26.891-2.173
		C333.222,567.341,351.054,568.361,370.099,569.62z"/>
	<path fill="#D68B1B" d="M384.507,940.92c7.454,8.926,20.202,17.617,19.712,31.186c-15.941-4.924-16.689-0.923-26.129,8.359
		c-12.978,7.549-20.682,17.805-17.277,34.75c-16.351-1.466-11.946,7.134-11.337,19.229c-2.545,4.255-9.537,6.145-12.236,11.103
		c-4.929,8.87-14.175,21.634-11.967,28.573c4.494,4.091,4.837-1.263,5.541-5.465c2.721-6.024,5.701-10.99,8.891-17.178
		c3.138-6.56,10.741-8.289,14.227-13.844c3.003-4.022-1.546-10.474-0.436-15.683c6.07-6.654,11.212,6.184,12.079,12.261
		c1.873,4.607,4.903,6.94,9.534,8.892c13.475,6.634,29.517-20.139,21.724,5.411c-2.883,5.483-7.576,7.104-13.791,7.26
		c-23.075-1.651-24.369-2.303-38.453,12.917c-19.015,11.753-23.69,29.67-35.191,34.34c-28.954,0.983-8.807-44.471-1.537-56.959
		c8.474-14.219,22.87-22.659,30.371-37.804C360.357,958.234,351.729,967.581,384.507,940.92z"/>
	<path fill="#D68B1B" d="M73.1,638.057c-10.257-10.385-6.461-23.47-8.767-36.512c-8.163-36.82,7.421-51.707,38.306-48.393
		c7.804,0.852,14.127-2.7,22.313-3.086c19.956,4.915,7.108,16.976-0.815,24.568c-10.567,10.139-32.426,9.832-35.578,24.781
		c-2.596,6.012,7.347,19.548,8.03,10.134c-5.216-11.114-2.895-13.233,6.594-17.818c39.775-12.992,37.834-45.215,46.112-26.949
		c1.027,9.01,5.895,14.934,10.527,22.636c3.081,9.722,2.019,18.966,3.969,29.05c-39.203-21.184-60.866-2.485-45.163-3.282
		c6.061-1.708,33.171-2.717,20.393,7.312c-3.84,0.706-7.007,1.207-11.196-1.651c-7.921-4.206-14.192-1.857-22.189,0.443
		C92.254,621.164,84.358,630.53,73.1,638.057z"/>
	<path fill="#E06444" d="M458.232,953.39c-18.529,26.904-3.578,54.862,18.366,71.583c-14.637,3.984-27.295-0.806-42.102-1.488
		c-12.308,1.366-21.886,8.009-35.003,6.935c-10.135,1.231-17.011,13.577-26.887,4.855c-2.553-2.854-2.72-4.985-3.909-9.718
		c-7.785-28.344-1.99-29.449,15.709-43.415c7.218-12.027,14.391-3.738,23.555-5.358C430.507,974.157,449.534,952.054,458.232,953.39
		z"/>
	<path fill="#D68B1B" d="M535.323,935.145c-0.156,7.358-14.078,24.872-6.711,25.631c9.993-9.798,9.342-25.424,18.428-37.209
		c21.739,39.941,30.842,70.261,74.641,64.315c-25.846,41.567-70.185-19.13-93.575-5.816c-14.788,8.708-12.254,21.724-12.076,37.099
		c-6.582,2.986-12.948-13.046-15.057-17.003C486.584,964.612,508.235,927.372,535.323,935.145z"/>
	<path fill="#D68B1B" d="M1090.756,555.817c-41.811,15.499-50.556,24.277-77.623-2.377c-4.042-5.078-12.24-7.939-11.353-14.984
		c5.891-15.588,16.035-39.316,28.539-42.131c1.986-0.128,3.498,0.644,5.605,2.08c13.234,14.762,22.959,10.999,36.7,13.37
		C1070.632,530.018,1075.252,545.116,1090.756,555.817z M1042.155,520.664c-2.686-3.992-6.577,1.423-7.043,5.866
		C1035.797,538.844,1041.497,526.451,1042.155,520.664z"/>
	<path fill="#D68B1B" d="M1099.39,479.15c3.349,27.363,6.583,11.693,16.884,15.721c2.339-0.045,5.273-2.382,8.071,0.425
		c6.13,1.694,11.666-1.614,18.314-2.649c8.273-9.078-11.15-2.74-14.942-2.183c-8.003-1.956,9.682-9.397,10.757-11.867
		c2.32-8.886-11.367,0.883-13.413,2.62c-4.14,2.997-4.847,8.36-10.664,8.267c7.375-29.701,11.753-16.54,20.786-27.574
		c1.061-5.583-6.511-1.419-9.03-0.577c-14.15,4.598-12.038,18.361-19.224,29.558c-6.35-10.092,0.379-18.018,4.126-27.133
		c1.613-7.093,8.354-11.16,11.294-16.696c-6.449-11.623-19.142,22.357-21.487,25.725c-3.984-12.331,2.914-21.558,6.989-32.491
		c5.027-12.68,17.299,6.079,22.916,9.052c11.678,7.16,17.254,22.895,19.233,36.66c-4.194,14.878-17.693,39.19-28.99,37.233
		c-17.294-1.972-18.766-17.59-23.992-30.707c-9.939-9.579-11.13-25.331-8.542-38.96c1.613-7.333,0.107-14.569,4.218-21.299
		c3.457-2.688,9.138,6.772,8.508,10.68C1096.304,454.177,1089.39,468.325,1099.39,479.15z"/>
	<path fill="#E06444" d="M538.287,262.585c-16.919,1.183-32.817,3.445-43.913,19.987c-16.837-70.853-24.147-63.001,0.577-78.731
		c5.036-2.13,12.433-7.861,15.582-2.136C522.107,225.006,537.743,252.864,538.287,262.585z"/>
	<path fill="#D68B1B" d="M505.976,1021.036c-26.596,4.845-23.848,3.71-39.242-12.871c-18.321-23.317-13.785-39.677,0.439-58.779
		c14.452-7.357,27.63-14.534,43.866-16.284C485.215,954.685,485.785,994.418,505.976,1021.036z"/>
	<path fill="#E06444" d="M906.296,214.112c-17.251-11.43-38.883-11.535-55.821,0.64c-11.127,13.516-9.243,34.247-21.181,48.389
		c-7.336-18.168-25.776-23.018-28.053-1.274c1.532,22.852,14.718,46.958,5.818,67.138c-5.694-29.267-11.028-64.485-6.806-82.253
		c11.896-36.73,35.866-57.396,68.751-51.111C884.671,199.775,896.094,201.142,906.296,214.112z"/>
	<path fill="#D68B1B" d="M599.919,1008.41c-14.821,26.536-58.311,30.797-76.806,9.468c-7.915-11.937,1.675-35.677,16.055-31.916
		C560.227,993.454,577.78,1005.899,599.919,1008.41z"/>
	<path fill="#E06444" d="M418.142,586.432c-51.468,9.324-65.341,40.537-30.211,84.069c-14.771-5.047-33.616-6.855-35.487-11.11
		c1.327-13.348,3.86-25.771,7.233-38.594c2.296-15.49,8.083-55.599,21.958-49.017C394.035,579.062,405.878,579.941,418.142,586.432z
		"/>
	<path fill="#E06444" d="M462.927,692.877c32.563-10.316,41.232-72.954,10.61-88.243c21.782-9.771,25.972,7.924,30.342,24.089
		C512.023,663.626,499.604,703.887,462.927,692.877z"/>
	<path fill="#D68B1B" d="M1093.392,496.258c3.025,16.413,12.047,31.872,28.881,32.801c-7.365,7.963-24.891,25.307-28.741,21.82
		c-12.853-7.997-18.199-21.424-15.951-36.058C1081.808,507.236,1087.504,502.873,1093.392,496.258z"/>
	<path fill="#E06444" d="M379.761,933.56c0.88,3.073-0.506,5.37-2.269,6.643c-33.936,24.065-27.913,31.77-40.457,59.088
		c-5.709,11.899-13.846,20.944-22.871,29.91c-15.849,16.187-21.488,35.496-25.784,58.013c-2.778-13.985,3.082-24.081,7.486-36.316
		c8.058-29.712,23.89-27.826,33.259-46.796c5.38-9.747,5.416-22.157,9.669-32.536C345.575,953.368,361.061,931.19,379.761,933.56z"
		/>
	<path fill="#E06444" d="M800.23,321.6c-26.476,15.927-36.499-38.612-13.094-41.94c3.264,0.346,7.556-2.388,7.49,3.265
		C796.545,296.167,798.318,308.401,800.23,321.6z"/>
	<path fill="#E06444" d="M66.607,556.595c-10.402,12.945-10.97,23.198-8.157,39.578c1.944,15.125,0.792,29.274,7.738,43.034
		c-16.545,6.729-10.149-23.577-13.415-32.883C51.103,588.031,42.75,556.561,66.607,556.595z"/>
	<path fill="#D68B1B" d="M469.522,207.263c18.948-8.028,31.245-17.854,36.808-37.832c-0.727,29.674,2.317,22.325-14.531,31.943
		C485.081,204.226,475.283,218.081,469.522,207.263z"/>
	<path fill="#D68B1B" d="M800.491,347.995c-3.662,7.382-8.869,2.672-12.083-3.08C792.776,344.014,795.97,346.647,800.491,347.995z"
		/>
</g>
</svg>
