<?xml version="1.0" encoding="utf-8"?>
<!-- Designed by Vexels.com - 2020 All Rights Reserved - https://vexels.com/terms-and-conditions/  -->
<svg version="1.1" id="Capa_1" xmlns="http://www.w3.org/2000/svg" xmlns:xlink="http://www.w3.org/1999/xlink" x="0px" y="0px"
	 viewBox="0 0 1200 1200" enable-background="new 0 0 1200 1200" xml:space="preserve">
<g>
	<g>
		<path fill="#E06444" d="M498.605,408.594c-13.711-12.24-68.524-71.985-38.608-78.188c6.085-1.394,9.695-4.724,15.526-0.579
			c4.046,1.93,29.424,14.541,22.304,4.308c-7.35-3.31-13.494-4.862-21.253-8.361c26.985-10.511,47.998-33.843,77.448-38.079
			c11.977,0.833,23.116,5.263,35.597,4.787c6.707-0.038,12.788-1.112,19.135-3.91c4.879-2.128,4.544-2.445,5.541-1.496
			c-3.963,0.794-2.617-0.015-0.997-0.949c22.089,25.645,50.266,24.348,77.586,20.441c15.385-2.974,30.452-4.674,45.935-3.328
			c22.451-4.275,43.883-2.024,66.491-2.176c15.373,2.281,37.991-4.07,23.95,15.12c-9.05,18.753-13.29,36.511-15.044,58.132
			c-2.556,9.216-16.774,4.502-24.468,9.668c3.014-10.145,3.673-20.608-0.017-31.232c-2.033-5.368-0.468-10.449-5.655-13.813
			c-3.517,3.457-0.487,8.882,0.352,13.772c7.253,18.718-0.164,31.352-7.328,46.845c-5.675,12.518-7.685,24.363-10.842,37.431
			c-9.311-10.068-27.609-37.501-34.282-31.164c11.459,14.904,35.308,27.902,30.201,50.111c-1.028,12.11-6.791,21.045-11.738,32.016
			c-3.39,5.996-3.055,13.684-8.809,17.528c-10.891-1.395-20.076-10.034-31.953-8.934c-9.768,0.966-18.037,0.71-27.234-2.602
			c-5.848,1.107-0.501,5.21,3.391,5.752c14.821,5.074,29.879-1.63,44.01,6.648c14.498,5.245,7.346,7.889,4.596,18.204
			c-4.658,11.961-6.62,22.636-10.119,34.847c-5.396,15.404-17.737,26.672-16.442,43.738c1.11,19.501-12.302,9.955-17.493,20.233
			c-2.608,8.128-4.516,16.164-7.827,23.848c-7.516,25.227-27.305,9.691-43.249,6.608c-38.712-8.26-46.985-13.033-71.353-30.256
			c-33.309-18.676-87.283-22.631-102.557-56.021c-2.324-8.618,9.217-21.283,14.815-27.301
			c-6.567,34.687,55.866,39.067,38.061,29.932c-22.684-3.769-42.624-15.282-29.625-37.492c4.381-4.399,8.307-8.521,9.755-14.479
			c5.217-34.978,6.91-20.189,15.062-36.057c3.909-19.899,6.997-39.035,9.273-59.401c2.773-14.755,8.06-27.935,5.917-42.961
			c-1.836-7.853,6.569-15.1,1.211-19.438c-8.159,7.385-5.272,20.086-5.665,30.503C523.146,400.993,504.596,403.66,498.605,408.594z
			 M637.656,317.888c1.425-0.354,3.658,0.574,5.638-1.875c-5.326-6.941-34.089-3.975-39.488-7.559
			c-5.446-1.034-7.75-4.223-13.188-5.693c-4.728,1.633,0.966,5.685,4.497,6.728C608.579,316.358,623.135,315.392,637.656,317.888z
			 M527.003,559.03c9.987-2.252,22.678-1.195,27.339-5.586c0.793-3.266-2.637-3.444-4.94-2.484
			c-14.751,2.651-30.385,5.183-45.066-1.514c-0.463-0.184-1.784-0.041-2.552,0.665C500.669,557.905,523.471,557.434,527.003,559.03z
			"/>
		<path fill="#E06444" d="M358.424,694.305c-1.731-8.769,3.379-10.653,8.546-15.824c9.46-12.762,20.165-22.435,32.519-32.293
			c10.521-8.591,18.715-22.634,32.462-24.163c6.257,1.215,10.929,5.825,17.75,6.324c3.444,1.582,12.496-1.101,6.48-4.441
			c-16.428-0.636-18.252-8.886-32.049-6.328c8.941-10.993-3.68-36.084,17.085-34.601c15.363,0.61,21.973,15.095,29.389,11.49
			c4.177-3.218-17.304-12.318-18.811-14.573c8.012-2.916,8.623-8.131,14.18,0.351c9.897,11.572,22.765,17.843,36.488,24.19
			c7.787,3.457,15.419,6.272,23.6,8.967c40.677,10.393,46.278,23.566,67.42,32.823c23.853,12.047,37.401,4.532,33.159,18.482
			c-2.203,11.848,2.553,57.523,8.94,51.208c1.531-7.764-2.521-15.002-3.061-23.017c-2.693-12.343-1.548-22.577-0.914-35.75
			c2.997,1.975,11.16,1.018,11.691,4.883c1.004,8.091-2.618,15.84,2.735,20.768c3.845-4.795,0.625-13.176,1.573-19.633
			c7.664,2.462,26.519,0.683,22.814,7.339c-2.546,59.916-20.586,77.4-41.287,116.256c-7.826,14.733-11.339,30.599-17.717,46.185
			c-8.575,19.964-19.744,37.455-31.303,55.933c-4.191-16.435-10.092-33.939-17.262-50.057c-4.211-7.45-9.55-33.529-14.923-27.129
			c18.053,62.083,43.334,73.928,9.906,116.867c-7.127,10.35-9.265,20.999-18.36,29.502c-2.767-11.074-6.57-21.443-13.502-31.082
			c-11.369-15.873-10.554-34.025-14.331-52.238c-1.299-3.278-3.177-5.731-6.096-8.44c-23.636-21.191-13.522-52.501-48.247-53.69
			c4.586-6.861,13.7-8.051,17.514-15.302c5.27-8.159,5.52-22.678,16.505-23.534c0.721,3.867,0.912,9.158,1.908,13.682
			c5.656,18.705,13.79,34.643,15.187,54.332c9.522,13.232,0.463-25.88-0.363-27.803c-1.939-7.307-5.638-12.926-8.23-20.244
			c-3.765-8.631-2.766-16.779-2.934-25.687c-4.04-2.901-9.543,0.721-14.653-0.782c-17.154-5.219-31.585,3.429-48.011,6.834
			c3.137-8.453,8.995-15.915,10.739-24.892c-0.406-17.049-6.587-29.295-19.781-37.33
			C405.57,697.952,382.566,687.383,358.424,694.305z M472.738,693.829c3.95,16.044,5.626,31.686,7.04,47.927
			c1.516,4.505,3.769,8.629,7.013,12.177c2.343,0.853,4.07-2.113,2.268-4.161c-7.115-8.575-5.044-18.485-6.047-28.851
			c-2.57-11.809-2.966-25.173-7.96-29.801C474.186,692.134,473.32,693.147,472.738,693.829z"/>
		<path fill="#D68B1B" d="M350.832,812.314c-38.023,40.415-56.12,44.81-88.135,62.493c-15.347,8.373-31.526,11.024-46.543,19.772
			c-15.779,12.283-35.574-19.043-30.843-30.257c3.374-7.639,10.422-12.868,15.943-19.358c87.512-95.173,66.98-82.518,127.27-98.673
			c22.727-11.642,24.747-38.608,33.321-47.439c18.376-5.899,36.509,2.446,52.278,11.756c18.331,9.558,27.195,22.503,25.412,40.753
			c-4.029,7.539-5.751,16.738-13.265,21.628c-15.228,8.817-30.972,14.531-46.943,21.491c-9.135,5.742-17.46,11.037-28.408,12.917
			c-6.876,1.498-13.62,1.828-21.023-0.881C316.242,810.547,347.265,814.67,350.832,812.314z"/>
		<path fill="#D68B1B" d="M352.3,1018.237c-11.426-27.049,1.591-41.124,23.267-51.846c16.715-6.328,35.078-7.266,52.81-9.908
			c1.859,9.256-2.624,23.824,2.834,27.864c3.359-2.376,2.264-6.051,1.903-10.582c-0.558-8.886,0.558-16.707,2.728-25.26
			c15.046-42.06,21.995-85.128,37.283-126.857c9.099,9.863,11.525,23.618,18.503,35.062c2.503,4.207,4.435,7.255,8.244,11.062
			c11.805,8.053,7.738,21.932,10.718,34.323c3.724,23.669,26.445,42.271,22.133,58.303c-17.97,19.999-28.436,43.826-44.087,65.281
			c-32.234,37.844-30.276,6.593-51.409,4.537c-0.091,4.675,5.309,6.815,8.642,10.057
			C399.152,1040.956,382.572,1029.31,352.3,1018.237z"/>
		<path fill="#D68B1B" d="M1094.133,397.127c4.476,3.115,10.302,11.967,9.759,13.886c-0.403,1.427-1.106,1.321-3.041,1.427
			c-17.319,0.951-38.268-32.59-41.059-33.771c-0.095-0.04-2.311-1.066-3.191-1.045c-6.767,0.158-14.207-1.478-21.197,0.027
			c-16.491,2.914-32.404,7.307-48.426,1.535c-17.787-6.406-34.79-7.213-53.11-3.841c-0.077,0.014-0.158,0.017-0.236,0.009
			c-17.097-1.767-32.205,2.622-48.947,4.933c-22.471,3.237-44.242,0.09-66.573-2.015c-1.723-0.107-1.305-0.57-1.105-2.727
			c0.684-9.025,1.855-17.159,3.782-25.835c2.9-12.86,7.346-24.977,13.933-36.863c0.024-0.043,0.044-0.091,0.059-0.137
			c3.303-10.363,11.324-1.242,18.394,0.212c17.347,4.882,34.95,3.568,52.86,5.15c181.286,6.14,123.216,24.096,238.289,51.604
			c11.829,2.935,1.721,28.949,0.336,35.085c-0.029,0.129-0.078,0.239-0.154,0.347c-5.102,7.226-17.324,7.776-25.661,9.531
			c-17.344,4.105-11.446-15.745-23.036-22.168C1095.077,392.067,1088.314,393.077,1094.133,397.127z M1114.209,383.317
			c-0.556,0.184-0.815,0.858-0.522,1.365c4.062,7.028,22.448-3.655,25.288-6.729c3.258-1.267,3.185-5.532-1.204-4.132
			c-2.985,1.146-4.738,3.522-8.096,5.112C1124.529,381.431,1119.902,381.432,1114.209,383.317z"/>
		<path fill="#D68B1B" d="M424.329,345.824c-2.552,2.433-17.865,17.971-7.091,14.663c8.534-10.439,18.625-16.45,29.857-24.113
			c-1.55,13.384,4.32,22.282,11.138,32.112c9.12,17.048,23.114,28.294,34.908,42.827c-14.725,3.84-31.029-0.525-46.282,0.614
			c-10.607,0.152-19.237,5.277-30.198,4.683c-13.564-2.36-23.528-13.017-37.013-16.525c-40.255-14.97-99.002-85.705-117.301-101.441
			c-7.04-8.911-12.442-3.331-19.022-6.353c-5.38-2.751-9.021-8.002-15.649-8.017c-11.897,0.801-24.308-1.044-32.45-10.016
			c22.119,5.417,44.061-1.106,54.117-22.163c-1.264-16.034,5.39-24.853,4.99-37.855c0.14-10.234-13.62-11.906-13.061-22.546
			c23.856,6.864,20.835,4.527,28.372,23.717c15.996,29.774,8.769,37.93,17.398,50.364
			C364.374,326.579,382.683,327.193,424.329,345.824z"/>
		<path fill="#D68B1B" d="M700.37,290.607c-0.81,2.566,1.688,7.146-1.126,8.881c-8.023,3.185-15.49,2.932-24.338,3.92
			c-22.911,1.445-43.91-2.102-57.314-20.179c-0.484-4.698,2.946-9.319,2.649-14.405c0.507-8.617-0.326-15.617-1.572-24.411
			c-2.154-6.831,9.702-0.566,7.948-10.019c-24.731,7.806-19.963-39.978,4.148-19.603c1.759,0.445,2.504-0.953,3.559-4.272
			c2.728-22.567,24.649-18.789,24.544-34.689c0.159-2.175,0.714-3.948,1.806-5.719c7.825-9.551,23.18-7.562,34.299-6.447
			c14.01,2.163,22.251,2.813,25.99,16.922c3.818,11.075,10.238,20.269,7.95,32.576c-0.863,11.109,0.903,22.094-4.599,32.675
			c-4.309,8.536-5.56,17.647-10.381,26.514c-13.408,20.237-32.998,16.957-50.557,7.861c-4.819,3.023,3.06,5.844,5.724,7.435
			C678.909,292.401,689.295,293.24,700.37,290.607z"/>
		<path fill="#E06444" d="M258.311,191.579c-8.737-0.258-17.151-8.575-20.396-3.486c-6.41,13.687,9.49,17.363,11.43,25.281
			c1.687,10.993-6.486,21.698-4.936,33.38c0.412,2.943-0.04,5.658-2.123,8.21c-26.014,35.526-85.597,7.124-91.534-27.832
			C138.1,149.15,234.72,129.085,258.311,191.579z"/>
		<path fill="#E06444" d="M151.487,889.983c-2.161,16.006,8.346,10.247,15.03,18.352c6.49,6.455,9.342,14.691,15.081,22.411
			c-16.888,3.443-20.253,13.254-0.211,5.485c-14.837,16.866-35.85,29.727-53.722,44.292c-8.504,5.762-14.689,13.667-24.767,19.272
			c-15.291,6.734-31.778,0.691-40.58-11.638c-9.405-15.04-6.205-35.732,5.972-48.475c6.913-6.965,16.068-8.971,24.587-14.138
			C111.263,911.182,129.545,898.532,151.487,889.983z M90.612,956.082c7.025-10.037,14.783-15.069,24.082-22.277
			c6.108-5.039,9.422-11.463,16.448-15.537c4.6-3.699,22.526-10.818,17.985-13.759c-5.368-1.714-9.905,4.857-14.87,6.833
			c-9.9,4.606-15.678,11.937-23.364,19.514c-9.473,6.908-25.054,16.513-24.416,27.508c16.642,10.256,15.474,20.176,20.95,19.785
			c6.873-2.578,41.582-18.694,32.056-22.786C89.029,984.392,119.148,969.963,90.612,956.082z"/>
		<path fill="#E06444" d="M308.428,1025.21c-1.393,9.605-26.167,3.142-31.052,6.473c-14.982,5.536-29.008,13.322-45.34,14.5
			c-66.583,13.711-48.191-34.91-21.78-50.194c17.551-10.635,39.985-8.425,58.517-17.972c13.52-5.757,22.785-17.719,37.11-21.124
			c15.569-4.665,31.684-5.075,48.065-3.152c0.163,2.688,0.72,6.584,1.019,10.368c-51.319-0.653-34.983,36.905-77.574,35.472
			c-4.104,0.934-8.98-0.458-11.473,4.246c6.84,4.129,35.199-2.405,38.327-5.627c1.207,7.21,2.306,13.777,3.474,20.756
			c-10.587-1.593-21.262,1.754-31.721,5.117c-5.347,2.436-27.864,5.298-21.173,9.877
			C272.952,1033.332,294.029,1018.697,308.428,1025.21z M224.207,1012.824c5.832-0.981,43.134,3.586,33.447-4.59
			c-11.424,1.398-22.803-1.445-34.698,0.536c-9.05,4.318,0.701,19.582,5.857,23.236c3.5,3.763,9.958,1.71,3.757-2.821
			C227.2,1025.327,224.552,1020.109,224.207,1012.824z"/>
		<path fill="#E06444" d="M347.326,1019.336c-11.509-0.98-23.217,1.939-33.611-1.201c-6.593-18.804-4.082-24.784,4.624-34.924
			c10.162-13.668,27.352-16.003,43.314-14.328C340.401,984.351,340.17,998.005,347.326,1019.336z"/>
		<path fill="#E06444" d="M629.838,207.557c-2.961-2.278-10.398-2.186-11.389-6.048c0.057-6.437,2.237-12.98,4.425-18.85
			c13.113-30.298,57.788-40.448,84.4-22.064c-64.945-10.537-47.608,15.627-56.821,22.055
			C639.235,190.676,632.237,194.295,629.838,207.557z"/>
		<path fill="#E06444" d="M187.426,927.274c-9-4.761-9.856-16.018-17.421-22.593c-5.635-6.935-14.313-5.016-13.594-10.007
			c-1.572-7.459,4.937-6.477,8.786-10.12c5.537-4.863,8.084-10.115,13.903-15.301c4.581,15.546,10.8,29.048,27.762,33.415
			C201.978,912.661,193.596,919.126,187.426,927.274z"/>
		<path fill="#E06444" d="M205.626,992.515c26.012-21.518,36.144-13.674,55.056-20.236c26.962-8.897,42.536-34.737,64.169-37.334
			c10.889-1.503,25.095,2.766,29.04,11.042c1.254,3.547-2.792,3.138-4.854,2.76c-51.99-4.584-58.63,12.83-81.218,24.121
			C248.231,983.064,225.047,980.954,205.626,992.515z"/>
		<path fill="#E06444" d="M101.58,1006.007c-11.537,10.589-37.734,2.064-44.443-7.721c-7.867-8.497-9.558-38.798-3.429-43.677
			C45.302,988.657,69.025,1013.157,101.58,1006.007z"/>
		<path fill="#E06444" d="M468.489,820.098c-4.674,11.462-7,26.54-12.85,36.192c-2.603-8.146-0.768-17.329-1.115-26.301
			c0.067-4.857-0.112-6.964,0.136-11.94C458.946,817.553,464.099,818.039,468.489,820.098z"/>
	</g>
</g>
</svg>
